Coordinates
version=1
nRows=8
nColumns=36
inDegrees=yes

Units are S.I. units (second, meters, Newtons, ...)
If the header above contains a line with 'inDegrees', this indicates whether rotational values are in degrees (yes) or radians (no).

endheader
time	pelvis_tilt	pelvis_list	pelvis_rotation	pelvis_tx	pelvis_ty	pelvis_tz	hip_flexion_r	hip_adduction_r	hip_rotation_r	knee_angle_r	knee_angle_r_beta	ankle_angle_r	subtalar_angle_r	mtp_angle_r	hip_flexion_l	hip_adduction_l	hip_rotation_l	knee_angle_l	knee_angle_l_beta	ankle_angle_l	subtalar_angle_l	mtp_angle_l	lumbar_extension	lumbar_bending	lumbar_rotation	arm_flex_r	arm_add_r	arm_rot_r	elbow_flex_r	pro_sup_r	arm_flex_l	arm_add_l	arm_rot_l	elbow_flex_l	pro_sup_l
      5.25000000	      7.14270091	     -1.45713944	     -1.47607182	      1.43125684	      0.95224338	     -0.35845179	     -9.50972104	     -6.22462655	     -0.72083813	      5.61627790	      0.09802254	      7.61581916	     -5.98840134	     -7.49999987	    -13.12433212	     -9.03190331	     -7.79158696	      2.02411052	      0.03532739	      8.25178810	     -1.85606556	     -7.49999987	     -4.72314184	      0.55053068	     -2.02893591	     38.80379445	     -7.37332005	     25.58967076	    132.86115491	    108.85745493	      5.45328605	    -10.40332952	     -5.99606165	     10.64791916	     99.20065176
      5.26666670	      7.21725132	     -1.45052118	     -1.51657965	      1.43107348	      0.95213499	     -0.35887129	     -9.63240847	     -6.26715829	     -0.72307599	      5.55575150	      0.09696616	      7.57340036	     -5.97327353	     -7.49999987	    -13.27389514	     -8.99804510	     -7.91960675	      1.98437774	      0.03463393	      8.29290491	     -1.61103613	     -7.49999987	     -4.70684447	      0.48768022	     -2.13025058	     38.50270722	     -7.28273722	     25.97101078	    132.66481697	    108.17086388	      5.27154310	    -10.23687015	     -6.90250551	      9.79661019	     97.59836755
      5.28333330	      7.18284725	     -1.43778284	     -1.58133735	      1.42699468	      0.95174582	     -0.36152943	     -9.58216170	     -6.33490092	     -0.72024033	      5.53228426	      0.09655658	      7.58635015	     -5.97264265	     -7.49999987	    -13.24506653	     -8.94091922	     -7.89003072	      1.99373526	      0.03479724	      8.31004487	     -1.60743002	     -7.49999987	     -4.79917898	      0.44132874	     -2.02955977	     38.46015462	     -7.21990125	     26.01899904	    132.62181808	    108.19643348	      5.24287498	    -10.09091103	     -6.92363562	      9.76567009	     97.62168886
      5.30000000	      7.13861744	     -1.39494283	     -1.72469946	      1.42669213	      0.94933584	     -0.36151960	     -9.46303786	     -6.44326965	     -0.58309108	      5.56803620	      0.09718056	      7.59232230	     -5.98681518	     -7.49999987	    -13.21921675	     -8.81902355	     -8.05741757	      1.99725843	      0.03485874	      8.36592346	     -1.55898029	     -7.49999987	     -4.69416787	      0.47518880	     -1.64484825	     38.70061611	     -7.24479511	     26.07143941	    132.28952661	    110.05935802	      5.50028211	     -9.65290372	    -12.14261099	      9.07514671	    101.88288024
      5.31666670	      7.17216408	     -1.37042298	     -1.75837616	      1.43096264	      0.94961661	     -0.36381467	     -9.49371258	     -6.53501489	     -0.59162186	      5.57228909	      0.09725479	      7.57848785	     -5.97813467	     -7.49999987	    -13.27951230	     -8.73455627	     -7.99213446	      2.00963215	      0.03507470	      8.36832788	     -1.53089596	     -7.49999987	     -4.70658215	      0.51556965	     -1.61188116	     38.60516591	     -7.31438299	     26.06589519	    132.28064630	    110.05081010	      5.22738079	     -9.48576175	    -12.13809247	      8.96259549	    101.89255708
      5.33333330	      7.14759357	     -1.32487454	     -1.79465089	      1.43079721	      0.94715376	     -0.36383555	     -9.51541383	     -6.64973107	     -0.68257260	      5.49994743	      0.09599219	      7.62551472	     -5.78680212	     -7.49999987	    -13.32648082	     -8.62938318	     -8.01680508	      1.93869885	      0.03383668	      8.40475028	     -1.39658461	     -7.49999987	     -4.45208165	      0.45652984	     -1.50268303	     38.29723599	     -7.45321078	     25.95471324	    132.17373662	    109.92941898	      4.92039805	     -9.40664494	    -11.86496568	      8.52764238	    100.98468012
      5.35000000	      7.13865289	     -1.31435382	     -1.79461206	      1.43081637	      0.94687176	     -0.36353649	     -9.55104287	     -6.72099303	     -0.81090379	      5.44545052	      0.09504104	      7.67807129	     -5.61847133	     -7.49999987	    -13.35434937	     -8.56408077	     -7.88925301	      1.90523352	      0.03325260	      8.39556403	     -1.59830067	     -7.49999987	     -4.33538355	      0.42240917	     -1.37695048	     38.04509176	     -7.57906531	     25.73902685	    132.36448570	    110.06472735	      4.64901027	     -9.39761642	    -11.37392497	      8.49471375	    100.32550342
      5.36666670	      7.12593237	     -1.30856504	     -1.87226923	      1.43058187	      0.94441735	     -0.36356917	     -9.56433673	     -6.78035574	     -0.73800277	      5.36911584	      0.09370875	      7.62109238	     -5.61751403	     -7.49999987	    -13.40282877	     -8.50036023	     -8.01832673	      1.87684397	      0.03275711	      8.52804223	     -1.39386622	     -7.49999987	     -4.20163256	      0.37886427	     -1.35037025	     38.08203392	     -7.50121240	     25.63617874	    132.58427633	    109.16265911	      4.57832783	     -9.35607514	    -11.79279233	      8.15730110	     99.38536243
